<svg width="3943" height="798" viewBox="0 0 3943 798" fill="none" xmlns="http://www.w3.org/2000/svg">
<path fill-rule="evenodd" clip-rule="evenodd" d="M2907.48 509.996L3027.61 217.026L3145.94 509.996H2907.48ZM3104.16 47.8418C3089.2 15.7943 3064.38 0.145488 3028.38 0.145488C2992.47 0.145488 2966.51 16.9833 2953.31 48.8154L2675.22 702.009C2672.74 708.818 2669 719.16 2669 733.205C2669 769.554 2701.49 798.043 2742.97 798.043C2774.47 798.043 2795.2 783.479 2808.17 752.229L2855.36 637.157H3197.27L3244.58 754.278C3261.03 790.445 3288.87 798.043 3309.36 798.043C3352 798.043 3386.68 767.023 3386.68 728.91C3386.68 717.747 3383.23 705.506 3380.01 697.774L3104.16 47.8418ZM3868.62 0.145488C3831.31 0.145488 3815.38 20.7339 3803.72 42.998L3803.61 43.1895L3616.11 364.84L3416.75 37.7311C3396.17 4.04771 3372.75 0.145488 3356.87 0.145488C3315.29 0.145488 3281.8 36.7975 3281.8 67.1295C3281.8 81.5254 3286.39 96.5278 3294.77 109.384L3542.69 512.151V726.756C3542.69 770.726 3570.59 798.043 3615.54 798.043C3660.48 798.043 3688.41 770.726 3688.41 726.756V511.96L3689.1 510.825L3924.11 118.991C3933.71 103.119 3942.6 85.8585 3942.6 67.1295C3942.6 33.3342 3905.95 0.145488 3868.62 0.145488V0.145488ZM2515.06 665.82H2295.65V68.7654C2295.65 25.075 2269.26 0.041748 2223.22 0.041748C2177.19 0.041748 2150.78 25.075 2150.78 68.7654V796.837H2515.06C2559.68 796.837 2585.27 772.96 2585.27 731.336C2585.27 689.714 2559.68 665.82 2515.06 665.82V665.82ZM1798.08 373.059H1638.71V556.719C1638.71 613.081 1591.13 658.926 1532.64 658.926C1474.15 658.926 1426.57 613.081 1426.57 556.719V138.566H1798.08C1865.19 138.566 1919.77 191.155 1919.77 255.801C1919.77 320.471 1865.19 373.059 1798.08 373.059V373.059ZM1798.08 0.041748H1282.8V556.719C1282.8 689.68 1394.66 797.45 1532.64 797.45C1670.62 797.45 1782.47 689.68 1782.47 556.719V511.584H1798.08C1944.69 511.584 2063.54 397.079 2063.54 255.801C2063.54 114.547 1944.69 0.041748 1798.08 0.041748V0.041748Z" fill="#00F0C8"/>
<path fill-rule="evenodd" clip-rule="evenodd" d="M497.567 239.719V254.075C497.567 273.131 481.536 288.58 461.757 288.58C441.981 288.58 425.947 273.131 425.947 254.075V239.719C425.947 141.262 338.99 62.0046 235.194 69.5058C145.055 76.0175 71.6208 156.153 71.6208 243.246V557.563C71.6208 656.019 158.571 735.277 262.374 727.776C352.514 721.264 425.947 641.13 425.947 554.034V461.107H248.784V392.097H461.757C481.536 392.097 497.567 407.547 497.567 426.602V557.563C497.567 689.959 386.178 797.282 248.784 797.282H248.776C111.381 797.282 0 689.959 0 557.563V239.719C0 107.323 111.381 0 248.776 0H248.784C386.178 0 497.567 107.323 497.567 239.719V239.719ZM641.421 239.853C641.421 107.464 752.81 0.133455 890.206 0.133455C1027.61 0.133455 1138.99 107.464 1138.99 239.853V557.697C1138.99 690.085 1027.61 797.416 890.206 797.416C752.81 797.416 641.421 690.085 641.421 557.697V239.853ZM1067.37 239.853C1067.37 145.728 987.887 69.1444 890.206 69.1444C792.522 69.1444 713.041 145.728 713.041 239.853V557.697C713.041 651.829 792.522 728.403 890.206 728.403C987.887 728.403 1067.37 651.829 1067.37 557.697V239.853Z" fill="white"/>
</svg>
